<svg width="31" height="30" viewBox="0 0 31 30" fill="none" xmlns="http://www.w3.org/2000/svg">
<path d="M24.412 10.5L22.8017 6.9L19.2881 5.25L22.8017 3.6L24.412 0L26.0224 3.6L29.536 5.25L26.0224 6.9L24.412 10.5ZM27.34 21L26.1688 18.45L23.68 17.25L26.1688 16.05L27.34 13.5L28.5112 16.05L31 17.25L28.5112 18.45L27.34 21ZM8.30815 30L7.86895 26.475C7.69815 26.4 7.51515 26.3 7.31995 26.175C7.12475 26.05 6.96616 25.925 6.84416 25.8L3.62338 27.225L0 20.7L2.74498 18.6C2.74498 18.4 2.74498 18.2 2.74498 18C2.74498 17.8 2.74498 17.6 2.74498 17.4L0 15.3L3.62338 8.775L6.84416 10.2C6.96616 10.075 7.12475 9.95 7.31995 9.825C7.51515 9.7 7.69815 9.6 7.86895 9.525L8.30815 6H15.6281L16.0673 9.525C16.2381 9.6 16.4211 9.7 16.6163 9.825C16.8115 9.95 16.9701 10.075 17.0921 10.2L20.3129 8.775L23.9362 15.3L21.1913 17.4C21.1913 17.6 21.1913 17.8 21.1913 18C21.1913 18.2 21.1913 18.4 21.1913 18.6L23.9362 20.7L20.3129 27.225L17.0921 25.8C16.9701 25.925 16.8115 26.05 16.6163 26.175C16.4211 26.3 16.2381 26.4 16.0673 26.475L15.6281 30H8.30815ZM11.9681 22.5C13.1881 22.5 14.2251 22.0625 15.0791 21.1875C15.9331 20.3125 16.3601 19.25 16.3601 18C16.3601 16.75 15.9331 15.6875 15.0791 14.8125C14.2251 13.9375 13.1881 13.5 11.9681 13.5C10.7481 13.5 9.71114 13.9375 8.85714 14.8125C8.00315 15.6875 7.57615 16.75 7.57615 18C7.57615 19.25 8.00315 20.3125 8.85714 21.1875C9.71114 22.0625 10.7481 22.5 11.9681 22.5ZM10.8701 27H13.0661L13.3589 24.3C14.0665 24.1 14.6704 23.8438 15.1706 23.5312C15.6708 23.2188 16.1649 22.8 16.6529 22.275L19.0685 23.4L20.0933 21.525L17.9705 19.875C18.1657 19.3 18.2633 18.675 18.2633 18C18.2633 17.325 18.1657 16.7 17.9705 16.125L20.0933 14.475L19.0685 12.6L16.6529 13.725C16.1649 13.2 15.6708 12.7812 15.1706 12.4688C14.6704 12.1562 14.0665 11.9 13.3589 11.7L13.0661 9H10.8701L10.5773 11.7C9.86974 11.9 9.26584 12.1562 8.76564 12.4688C8.26545 12.7812 7.77135 13.2 7.28335 13.725L4.86777 12.6L3.84298 14.475L5.96576 16.125C5.77056 16.7 5.66686 17.325 5.65466 18C5.64246 18.675 5.74616 19.3 5.96576 19.875L3.84298 21.525L4.86777 23.4L7.28335 22.275C7.77135 22.8 8.26545 23.2188 8.76564 23.5312C9.26584 23.8438 9.86974 24.1 10.5773 24.3L10.8701 27Z" fill="#5C403D"/>
</svg>
